<svg width="120" height="32" viewBox="0 0 120 32" fill="none" xmlns="http://www.w3.org/2000/svg">
    <path d="M12 8C12 5.79086 13.7909 4 16 4H24C26.2091 4 28 5.79086 28 8V24C28 26.2091 26.2091 28 24 28H16C13.7909 28 12 26.2091 12 24V8Z" fill="#E41E75"/>
    <path d="M4 12C4 9.79086 5.79086 8 8 8H16C18.2091 8 20 9.79086 20 12V24C20 26.2091 18.2091 28 16 28H8C5.79086 28 4 26.2091 4 24V12Z" fill="#2D4EA2"/>
    <text x="36" y="22" font-family="Arial, sans-serif" font-size="20" font-weight="bold" fill="#333333">Fundify</text>
</svg> 